<?xml version="1.0" encoding="utf-8"?>
<!-- Generator: Adobe Illustrator 22.1.0, SVG Export Plug-In . SVG Version: 6.00 Build 0)  -->
<svg version="1.1" id="Слой_1" xmlns="http://www.w3.org/2000/svg" xmlns:xlink="http://www.w3.org/1999/xlink" x="0px" y="0px"
	 viewBox="0 0 279 256" style="enable-background:new 0 0 279 256;" xml:space="preserve">
<style type="text/css">
	.st0{clip-path:url(#SVGID_2_);fill:none;stroke:#18424D;stroke-width:4;stroke-linecap:round;stroke-miterlimit:10;}
	.st1{clip-path:url(#SVGID_2_);fill:none;stroke:#18424D;stroke-width:4;stroke-miterlimit:10;}
	.st2{clip-path:url(#SVGID_2_);fill:#4CACF5;}
	.st3{fill:#4CACF5;}
	.st4{clip-path:url(#SVGID_4_);fill:#4CACF5;}
	.st5{fill:#18424D;}
</style>
<g>
	<defs>
		<rect id="SVGID_1_" y="0.8" width="278.8" height="255.2"/>
	</defs>
	<clipPath id="SVGID_2_">
		<use xlink:href="#SVGID_1_"  style="overflow:visible;"/>
	</clipPath>
	<path class="st0" d="M150.8,183.5H8.7c-3.7,0-6.7-3-6.7-6.7V9.5c0-3.7,3-6.7,6.7-6.7h234.2c3.7,0,6.7,3,6.7,6.7v86"/>
	<path class="st1" d="M187.1,19.4c-0.6,0.6-1.3,1.6-1.3,2.8c0,0.9,0.3,1.9,1.3,2.8c0.6,0.6,1.6,0.9,2.5,0.9c0.9,0,1.9-0.3,2.8-0.9
		c0.6-0.6,1.3-1.6,1.3-2.8c0-0.9-0.3-2.2-1.3-2.8C190.8,17.8,188.3,17.8,187.1,19.4 M210.9,18.2c-2.2,0-3.8,1.6-3.8,3.8
		c0,2.2,1.6,3.8,3.8,3.8c2.2,0,3.8-1.6,3.8-3.8C214.7,20,213.1,18.2,210.9,18.2 M229.4,19.4c-0.6,0.6-0.9,1.6-0.9,2.8
		c0,0.9,0.3,1.9,0.9,2.8c0.6,0.6,1.9,0.9,2.8,0.9c0.9,0,1.9-0.3,2.8-0.9c0.6-0.9,0.9-1.6,0.9-2.8c0-0.9-0.3-2.2-0.9-2.8
		C233.5,17.8,230.7,17.8,229.4,19.4 M0.9,39.6h247.6"/>
	<path class="st2" d="M165.7,146.1c-0.5,0.6-1.5,0.7-2.1,0.1l-22.8-21.6c-0.6-0.6-0.6-1.5-0.1-2.1l7.3-7.7c0.6-0.6,1.5-0.6,2.1-0.1
		l12.5,11.8c0.6,0.6,1.5,0.5,2.1-0.1l24.4-28.3c0.5-0.6,1.5-0.7,2.1-0.2l8,6.9c0.6,0.5,0.7,1.5,0.2,2.1L165.7,146.1z"/>
	<path class="st2" d="M75.6,124.2c-2.3-0.7-3.8-1.3-4.5-1.8c-0.6-0.5-0.9-1.1-0.9-1.8c0-1,0.3-2.3,3.1-2.3c1.4,0,2.8,0.3,4.3,0.8
		c2.7,0.9,3.4,1.5,3.9,1.9l0.8,0.6L84,113l-1.6-0.7c-1.8-0.8-5.6-1.7-9.2-1.7c-3.8,0-6.9,0.9-9.5,2.6c-2.6,1.8-3.9,4.4-3.9,8
		c0,3.2,0.8,5.6,2.3,7.4c1.5,1.7,4.3,3.1,8.4,4.4c2.7,0.8,3.7,1.4,4,1.7c0.5,0.3,0.7,0.9,0.7,1.7c0,1.5-1.1,2.3-3.1,2.3
		c-1.3,0-2.9-0.3-4.6-0.8c-3-1-4-1.6-4.8-2l-1-0.5l-1.9,8.6l1.8,0.8c0.9,0.4,2.2,0.8,4.5,1.3c2,0.4,4.1,0.7,6.3,0.7
		c3.7,0,6.7-1,9.1-3.2c2.4-2.1,3.6-4.9,3.6-8.1C85.3,129.7,82.4,126.4,75.6,124.2"/>
</g>
<polygon class="st3" points="125.6,138.6 125.6,111.1 115.9,111.1 115.9,146.2 138.2,146.2 140.9,138.6 "/>
<g>
	<defs>
		<rect id="SVGID_3_" y="0.8" width="278.8" height="255.2"/>
	</defs>
	<clipPath id="SVGID_4_">
		<use xlink:href="#SVGID_3_"  style="overflow:visible;"/>
	</clipPath>
	<path class="st4" d="M102.6,124.2c-2.3-0.7-3.8-1.3-4.5-1.8c-0.6-0.5-0.9-1.1-0.9-1.8c0-1,0.3-2.3,3.1-2.3c1.4,0,2.8,0.3,4.3,0.8
		c2.7,0.9,3.4,1.5,3.9,1.9l0.8,0.6l1.7-8.6l-1.6-0.7c-1.8-0.8-5.6-1.7-9.2-1.7c-3.8,0-6.9,0.9-9.5,2.6c-2.6,1.8-3.9,4.5-3.9,8
		c0,3.2,0.8,5.6,2.3,7.4c1.5,1.7,4.3,3.1,8.4,4.4c2.7,0.8,3.7,1.4,4,1.7c0.5,0.3,0.7,0.9,0.7,1.7c0,1.5-1.1,2.3-3.1,2.3
		c-1.3,0-2.9-0.3-4.6-0.8c-3-1-4-1.6-4.8-2l-1-0.5l-1.9,8.6l1.8,0.8c0.9,0.4,2.2,0.8,4.5,1.3c2,0.4,4.1,0.7,6.3,0.7
		c3.7,0,6.7-1,9.1-3.2c2.4-2.1,3.6-4.9,3.6-8.1C112.3,129.7,109.4,126.4,102.6,124.2"/>
	<path class="st4" d="M204.3,224c0,6-5,11-11,11c-6.1,0-11-4.9-11-11v-34.8c0-6.1,4.9-11,11-11c6.1,0,11,4.9,11,11V224z
		 M269.2,154.3h-7.1v-32.4c0-37.6-30.8-68.4-68.5-68.4c-31,0-57.4,20.9-65.8,49.3h22.8c2.3-5.2,5.6-9.9,9.7-14
		c8.9-8.9,20.7-13.8,33.2-13.8s24.3,4.9,33.2,13.8c8.9,8.9,13.8,20.7,13.8,33.2v32.4h-4.8h-86.1h-3.3H125h-8.5
		c-5.3,0-9.7,3.2-9.7,7.1V186v18.2v20.1c0,17.4,19.3,31.7,42.9,31.7h86.1c23.6,0,42.9-14.3,42.9-31.7v-20.1V186v-24.6
		C278.8,157.5,274.5,154.3,269.2,154.3"/>
</g>
<g>
	<path class="st5" d="M34.7,79.3h-3.3v-9.6c0-1.2-0.2-2.1-0.7-2.7c-0.5-0.6-1.3-0.9-2.3-0.9c-1.4,0-2.4,0.4-3.1,1.3
		c-0.7,0.8-1,2.2-1,4.2v7.8h-3.3v-22h3.3v5.6c0,0.9-0.1,1.9-0.2,2.9h0.2c0.5-0.8,1.1-1.3,1.9-1.8c0.8-0.4,1.7-0.6,2.8-0.6
		c3.8,0,5.7,1.9,5.7,5.7V79.3z"/>
	<path class="st5" d="M44.8,76.9c0.8,0,1.6-0.1,2.4-0.4V79c-0.4,0.2-0.8,0.3-1.4,0.4c-0.6,0.1-1.2,0.2-1.8,0.2c-3.2,0-4.7-1.7-4.7-5
		v-8.4h-2.1v-1.5l2.3-1.2l1.1-3.3h2.1v3.5h4.5v2.5h-4.5v8.4c0,0.8,0.2,1.4,0.6,1.8C43.6,76.7,44.2,76.9,44.8,76.9z"/>
	<path class="st5" d="M56.7,76.9c0.8,0,1.6-0.1,2.4-0.4V79c-0.4,0.2-0.8,0.3-1.4,0.4c-0.6,0.1-1.2,0.2-1.8,0.2c-3.2,0-4.7-1.7-4.7-5
		v-8.4h-2.1v-1.5l2.3-1.2l1.1-3.3h2.1v3.5H59v2.5h-4.5v8.4c0,0.8,0.2,1.4,0.6,1.8C55.5,76.7,56.1,76.9,56.7,76.9z"/>
	<path class="st5" d="M69.9,79.6c-2,0-3.5-0.7-4.6-2.1h-0.2c0.1,1.3,0.2,2.1,0.2,2.4v6.4H62V63.7h2.7c0.1,0.3,0.2,1,0.5,2.1h0.2
		c1-1.6,2.6-2.4,4.7-2.4c2,0,3.5,0.7,4.6,2.1s1.6,3.4,1.6,6s-0.6,4.6-1.7,6C73.4,78.9,71.9,79.6,69.9,79.6z M69.1,66.1
		c-1.3,0-2.3,0.4-2.9,1.2c-0.6,0.8-0.9,2-0.9,3.7v0.5c0,1.9,0.3,3.3,0.9,4.1s1.6,1.3,3,1.3c1.2,0,2-0.5,2.7-1.4
		c0.6-0.9,0.9-2.3,0.9-4c0-1.8-0.3-3.1-0.9-4C71.2,66.5,70.3,66.1,69.1,66.1z"/>
	<path class="st5" d="M90.5,74.8c0,1.5-0.6,2.7-1.7,3.5c-1.1,0.8-2.7,1.2-4.8,1.2c-2.1,0-3.8-0.3-5-0.9v-2.9
		c1.8,0.8,3.6,1.3,5.1,1.3c2,0,3.1-0.6,3.1-1.9c0-0.4-0.1-0.7-0.3-1s-0.6-0.5-1.1-0.8c-0.5-0.3-1.2-0.6-2.2-1
		c-1.8-0.7-3-1.4-3.7-2.1c-0.6-0.7-1-1.6-1-2.7c0-1.3,0.5-2.4,1.6-3.1c1.1-0.7,2.5-1.1,4.4-1.1c1.8,0,3.6,0.4,5.2,1.1L89.2,67
		c-1.7-0.7-3.1-1-4.3-1c-1.8,0-2.6,0.5-2.6,1.5c0,0.5,0.2,0.9,0.7,1.2c0.5,0.3,1.5,0.8,3,1.4c1.3,0.5,2.2,1,2.8,1.4
		c0.6,0.4,1,0.9,1.3,1.4C90.3,73.4,90.5,74.1,90.5,74.8z"/>
	<path class="st5" d="M93.3,65.4c0-1.4,0.7-2.1,2.1-2.1c0.7,0,1.2,0.2,1.6,0.6s0.5,0.9,0.5,1.6c0,0.7-0.2,1.2-0.5,1.6
		c-0.4,0.4-0.9,0.6-1.6,0.6c-0.7,0-1.2-0.2-1.6-0.6C93.5,66.7,93.3,66.1,93.3,65.4z M93.3,77.5c0-0.7,0.2-1.2,0.5-1.6
		c0.4-0.4,0.9-0.6,1.6-0.6c0.7,0,1.2,0.2,1.6,0.6c0.4,0.4,0.5,0.9,0.5,1.6c0,0.7-0.2,1.2-0.5,1.6c-0.4,0.4-0.9,0.6-1.6,0.6
		c-0.7,0-1.2-0.2-1.6-0.6C93.5,78.7,93.3,78.2,93.3,77.5z"/>
	<path class="st5" d="M110.8,58.6l-7.7,20.7H100l7.7-20.7H110.8z"/>
	<path class="st5" d="M120.3,58.6l-7.7,20.7h-3.1l7.7-20.7H120.3z"/>
</g>
</svg>
